<svg width="59" height="59" viewBox="0 0 59 59" fill="none" xmlns="http://www.w3.org/2000/svg"><path d="M26.8839 10.1522H31.5212V8.56992H26.8839V10.1522ZM33.2445 12.1576H25.2389V13.6772H33.2445V12.1576ZM18.9097 37.6469C18.9097 40.6706 18.9097 43.6785 18.9097 46.7022C18.9097 48.3941 19.74 49.2245 21.4476 49.2245C26.6176 49.2245 31.7875 49.2245 36.9418 49.2245C38.6964 49.2245 39.5268 48.3941 39.5268 46.6552C39.5268 40.7176 39.5268 34.7643 39.5268 28.8267C39.5268 28.247 39.3858 27.636 39.1508 27.1034C37.4431 23.4844 35.6885 19.8968 33.9808 16.2935C33.7615 15.8235 33.4952 15.6355 32.9625 15.6355C30.4872 15.6668 27.9962 15.6668 25.5209 15.6355C24.9569 15.6355 24.6906 15.8235 24.4399 16.3248C22.748 19.9125 20.9933 23.4688 19.3013 27.0564C19.0507 27.5734 18.9253 28.2 18.9097 28.764C18.8783 31.725 18.894 34.686 18.894 37.6313M33.4638 10.0739C34.9835 10.7006 35.2498 11.0452 35.1871 12.6589C35.1401 13.9279 35.4221 15.0402 35.9861 16.1682C37.6311 19.4425 39.2291 22.7481 40.7644 26.0851C41.1717 26.9781 41.4381 28.0277 41.4381 28.999C41.5007 34.827 41.4694 40.6392 41.4694 46.4672C41.4694 49.5221 39.8244 51.1514 36.7381 51.1514C31.6935 51.1514 26.6489 51.1514 21.5886 51.1514C18.6433 51.1514 16.9827 49.4908 16.9827 46.5298C16.9827 40.6706 16.9514 34.827 17.014 28.9677C17.014 28.012 17.2803 27.0094 17.672 26.1321C19.1603 22.8421 20.727 19.5991 22.3563 16.3718C22.983 15.1185 23.3903 13.8652 23.2493 12.4395C23.1553 11.3899 23.4999 10.5752 24.6279 10.2149C24.8003 10.1679 24.9569 9.77624 24.9726 9.52558C25.0979 6.64295 25.1293 6.59595 28.0276 6.59595C29.1869 6.59595 30.3619 6.59595 31.5212 6.59595C32.9312 6.61161 33.4482 7.15994 33.4638 8.56992C33.4638 9.07125 33.4638 9.57258 33.4638 10.0582" fill="#FAA627"/><path d="M30.2365 26.5393H34.5761C34.4351 26.1946 34.3568 25.9439 34.2471 25.709C33.3855 23.8916 32.4768 22.0743 31.6465 20.2257C31.3331 19.5207 30.8945 19.4267 30.2365 19.6304V26.5236V26.5393ZM32.0695 28.5289C31.3175 28.5289 30.5812 28.5603 29.8292 28.5289C28.8422 28.4663 28.2782 27.9179 28.2625 26.9153C28.2312 24.346 28.2312 21.7767 28.2625 19.2074C28.2625 18.236 28.8892 17.6877 29.8605 17.6564C29.9545 17.6564 30.0485 17.6564 30.1268 17.6564C31.8345 17.3587 32.8371 18.0637 33.4638 19.693C34.1844 21.5573 35.1558 23.312 36.0174 25.1136C36.9261 27.0406 35.9861 28.5133 33.8398 28.5446C33.2445 28.5446 32.6491 28.5446 32.0538 28.5446L32.0695 28.5289Z" fill="#FAA627"/><path d="M29.5 59C13.2382 59 0 45.7618 0 29.5C0 13.2382 13.2382 0 29.5 0C45.7618 0 59 13.2382 59 29.5C59 45.7618 45.7618 59 29.5 59ZM29.5 3.0863C14.9302 3.0863 3.0863 14.9302 3.0863 29.5C3.0863 44.0698 14.9302 55.9137 29.5 55.9137C44.0698 55.9137 55.9137 44.0698 55.9137 29.5C55.9137 14.9302 44.0542 3.0863 29.5 3.0863Z" fill="#FAA627"/><path d="M11.3234 9.31768L9.18994 11.5479L48.7331 49.3758L50.8665 47.1456L11.3234 9.31768Z" fill="#FAA627"/></svg>