<svg width="54" height="49" viewBox="0 0 54 49" fill="none" xmlns="http://www.w3.org/2000/svg"><path d="M26.9966 47C25.1779 45.3817 23.3776 43.8009 21.5956 42.2014C17.232 38.2837 12.8746 34.3474 8.94434 29.9174C7.06466 27.793 5.30093 25.5624 4.00103 22.9694C2.14576 19.2642 1.47444 15.3341 2.43869 11.1978C3.79963 5.38692 9.25558 1.46305 14.8031 2.06287C18.2451 2.43777 21.0036 4.11854 23.3471 6.71779C24.4883 7.98618 25.538 9.34829 26.6304 10.6729C26.7403 10.8104 26.8562 10.9416 27.0149 11.1353C27.3628 10.7041 27.6984 10.298 28.0219 9.89188C29.5903 7.9112 31.1648 5.93676 33.1666 4.4247C37.1884 1.39432 42.5406 1.15688 46.6234 3.98107C50.2729 6.50535 52.0061 10.2105 52 14.8717C52 19.4267 50.2668 23.2381 47.6914 26.7058C44.9939 30.3423 41.8509 33.5101 38.5859 36.5343C34.8693 39.9833 31.0794 43.3448 27.3261 46.7438C27.2407 46.8188 27.1492 46.8875 27.0027 47H26.9966Z" stroke="#DC84B3" stroke-width="3" stroke-miterlimit="10"/></svg>