<svg width="57" height="57" viewBox="0 0 57 57" fill="none" xmlns="http://www.w3.org/2000/svg"><g clip-path="url(#clip0_2899_2366)"><path d="M43.9643 51.1184C43.5453 51.1184 43.1419 50.9477 42.8315 50.6218L41.3262 49.0234C40.0536 47.6578 38.8277 46.3697 37.6172 45.0506H36.5154C31.9529 45.0662 27.2197 45.0817 22.5796 45.0506C18.4362 45.0196 14.6962 43.2039 12.5701 40.2088C10.7079 37.5862 10.2578 34.4669 11.2976 31.3942C13.1443 25.9627 15.0065 20.6088 16.8998 15.1307C18.312 11.0648 22.471 8.2404 27.2663 8.10073C30.8511 7.97658 33.8151 10.413 34.079 13.7185C34.1255 14.3547 34.1255 15.022 34.0479 15.6893C33.722 18.7931 31.0994 21.245 27.7939 21.7106L27.0956 28.8802C29.2837 28.5853 31.5029 28.7871 33.7376 29.4699C35.3981 27.7163 37.5396 26.63 40.1312 26.2731C43.5453 25.792 46.6956 26.7231 49.2717 28.9423C49.9235 29.5009 49.9856 30.4786 49.4269 31.1304C48.8682 31.7822 47.8906 31.8443 47.2388 31.2856C45.361 29.6717 43.0487 28.9888 40.5502 29.3458C38.3621 29.6561 36.7016 30.5873 35.4601 32.2167C35.0411 32.7599 34.3273 32.9616 33.6755 32.7288C30.9908 31.7201 28.3215 31.5804 25.761 32.3098C25.2644 32.4495 24.7367 32.3409 24.3333 32.015C23.9453 31.6891 23.728 31.177 23.7901 30.6804L24.8143 20.0966C24.8919 19.3052 25.5437 18.7 26.3352 18.7H26.7386C28.9268 18.6534 30.7425 17.2102 30.9442 15.3635C30.9908 14.8824 31.0063 14.4168 30.9597 13.9513C30.8356 12.3218 29.2682 11.1734 27.3284 11.1889C23.8211 11.2821 20.8105 13.2684 19.8173 16.1239C17.9241 21.5864 16.0618 26.9404 14.2306 32.3564C13.5168 34.4514 13.8271 36.593 15.0841 38.3776C16.636 40.5657 19.4449 41.8848 22.5952 41.9159C27.2352 41.9469 31.9529 41.9314 36.4999 41.9159H37.8345C38.6414 41.9159 39.1846 42.1331 39.6657 42.6608C40.9537 44.0574 42.2263 45.4231 43.5764 46.8508L45.0817 48.4647C45.6714 49.0855 45.6404 50.0787 45.0041 50.6529C44.7092 50.9322 44.3213 51.0719 43.9488 51.0719L43.9643 51.1184Z" fill="#52A53E"/><path d="M28.5078 57C12.7874 57 0 44.2126 0 28.5078C0 12.8029 12.7874 0 28.5078 0C44.2282 0 57.0155 12.7874 57.0155 28.5078C57.0155 44.2282 44.2282 57.0155 28.5078 57.0155V57ZM28.5078 3.10373C14.4944 3.10373 3.10373 14.4944 3.10373 28.5078C3.10373 42.5211 14.4944 53.9118 28.5078 53.9118C42.5211 53.9118 53.9118 42.5211 53.9118 28.5078C53.9118 14.4944 42.5056 3.10373 28.5078 3.10373Z" fill="#52A53E"/></g><defs><clipPath id="clip0_2899_2366"><rect width="57" height="57" fill="white"/></clipPath></defs></svg>