<svg width="59" height="59" viewBox="0 0 59 59" fill="none" xmlns="http://www.w3.org/2000/svg"><path d="M26.6385 59C26.1525 59 25.6665 59 25.1805 58.9701L25.3059 56.1754C33.5213 56.5042 41.2663 53.7842 47.0986 48.4937C52.7898 43.3377 55.9724 36.3584 56.0665 28.8262C56.2233 15.0619 44.4019 3.37501 29.7271 2.79216C22.5622 2.52315 15.8206 4.88444 10.7409 9.47253C5.77087 13.956 3.01151 20.0386 2.93312 26.5994C2.8077 38.3461 12.8731 48.2994 25.4 48.7926C31.5145 49.0317 37.2527 47.0142 41.5955 43.0986C45.8286 39.2727 48.196 34.0868 48.2588 28.4974C48.3685 18.7832 40.0277 10.5486 29.6801 10.1301C24.6317 9.92088 19.8812 11.5947 16.2909 14.8378C12.7947 17.9911 10.8506 22.2803 10.7879 26.8983C10.7095 34.58 17.2943 41.096 25.494 41.4248C29.492 41.5892 33.2391 40.2591 36.0768 37.7035C38.8362 35.2077 40.3883 31.8152 40.4197 28.1686C40.4824 22.5194 35.6221 17.7221 29.586 17.483C26.5758 17.3635 23.8165 18.2751 21.841 20.0685C19.9753 21.7573 18.9249 24.1186 18.9092 26.7339C18.8622 30.5598 21.9194 33.9224 25.5724 34.0719C27.5792 34.1466 29.4449 33.5488 30.7619 32.3532C31.9221 31.2921 32.5492 29.8873 32.5806 28.2882C32.5806 26.9282 31.7967 24.8957 29.539 24.8359C28.6924 24.806 27.9085 25.09 27.3284 25.628C26.7796 26.1212 26.4818 26.8086 26.4661 27.526L23.5343 27.4961C23.5343 26.0166 24.1771 24.6267 25.2902 23.6104C26.4504 22.5493 28.0182 22.0113 29.6174 22.0412C33.4899 22.1458 35.5437 25.359 35.4967 28.3181C35.4654 30.6644 34.509 32.8165 32.7687 34.3857C30.8716 36.1044 28.2847 36.9861 25.447 36.8666C20.1634 36.6573 15.9147 32.0991 15.9774 26.719C16.0087 23.3414 17.3884 20.2777 19.8342 18.0659C22.3897 15.7494 25.9173 14.5538 29.7115 14.7033C37.3154 15.0022 43.4299 21.0698 43.3515 28.2135C43.3044 32.6222 41.4387 36.7171 38.0993 39.736C34.6814 42.8146 30.1505 44.4138 25.3843 44.2195C15.6325 43.8309 7.762 36.0446 7.87175 26.8684C7.93446 21.4882 10.2078 16.4966 14.2841 12.8053C18.4388 9.03913 23.9262 7.09629 29.8055 7.33541C41.721 7.81365 51.316 17.3186 51.1906 28.5124C51.1279 34.864 48.4312 40.7523 43.618 45.1012C38.7107 49.5399 32.2043 51.8563 25.2902 51.5574C11.1955 51.0493 -0.1398 39.8257 0.00130319 26.5994C0.0796941 19.2764 3.18397 12.4914 8.71837 7.46991C14.3939 2.34381 21.8881 -0.301443 29.8526 0.0273452C46.0952 0.684922 59.1708 13.6272 58.9983 28.871C58.9042 37.1655 55.3923 44.8472 49.1211 50.5262C43.0536 56.011 35.1204 59 26.6385 59Z" fill="#038DCD"/></svg>